<svg data-v-423bf9ae="" xmlns="http://www.w3.org/2000/svg" viewBox="0 0 709 90" class="iconLeftSlogan"><!----><!----><!----><g data-v-423bf9ae="" id="6385b778-c7d6-45b1-8530-bffc4a74e0cf" fill="#12262A" transform="matrix(4.8504450429130355,0,0,4.8504450429130355,109.32093982374977,-19.838320965633493)"><path d="M3.35 10.85L3.35 10.85L3.35 10.85Q3.35 9.34 3.21 7.45L3.21 7.45L3.21 7.46L3.21 7.46Q3.14 7.22 2.80 7.22L2.80 7.22L2.74 7.22L2.74 7.22Q2.31 7.22 1.44 7.38L1.44 7.38L1.44 7.38Q0.57 7.53 0.14 7.53L0.14 7.53L0.14 7.53Q0.14 6.31 1.22 5.96L1.22 5.96L1.22 5.96Q2.03 5.82 3.25 5.59L3.25 5.59L3.25 5.59Q3.61 5.52 4.59 4.98L4.59 4.98L4.59 4.98Q5.87 4.30 6.83 4.30L6.83 4.30L6.83 4.30Q6.83 4.55 6.59 4.84L6.59 4.84L6.59 4.84Q6.36 5.14 6.36 5.24L6.36 5.24L6.36 5.24Q6.36 5.56 6.59 5.59L6.59 5.59L8.53 5.85L8.53 5.85Q8.79 5.89 9.06 6.36L9.06 6.36L9.06 6.36Q9.28 6.79 9.28 7.10L9.28 7.10L9.28 7.10Q9.28 7.39 9.14 7.48L9.14 7.48L9.14 7.48Q9.06 7.53 8.72 7.53L8.72 7.53L8.67 7.53L8.67 7.53Q8.22 7.53 7.32 7.38L7.32 7.38L7.32 7.38Q6.43 7.22 5.98 7.22L5.98 7.22L5.91 7.22L5.91 7.22Q5.67 7.22 5.67 7.35L5.67 7.35L5.67 7.35Q5.67 7.39 5.68 7.43L5.68 7.43L5.68 7.43Q5.57 8.26 5.54 9.38L5.54 9.38L5.54 9.38Q5.53 9.95 5.53 11.80L5.53 11.80L5.53 11.80Q5.53 13.87 5.54 14.24L5.54 14.24L5.54 14.24Q5.42 14.88 4.38 15.39L4.38 15.39L4.38 15.39Q3.47 15.83 2.77 15.83L2.77 15.83L2.77 15.83Q2.77 15.50 2.94 14.97L2.94 14.97L2.94 14.98L2.94 14.98Q3.35 13.76 3.35 10.85ZM9.91 15.23L9.91 15.23L9.91 15.16L10.05 14.74L10.05 14.74Q10.08 14.64 10.19 14.18L10.19 14.18L10.19 10.12L10.19 10.12Q10.09 9.84 10.05 9.56L10.05 9.56L10.05 9.28L10.05 9.28Q10.82 8.82 11.73 8.30L11.73 8.30L11.73 8.30Q12.57 7.83 12.85 7.83L12.85 7.83L12.85 8.57L12.99 8.57L12.99 8.57Q13.12 8.58 13.13 8.58L13.13 8.58L14.39 8.44L14.39 8.44Q15.19 8.61 15.51 8.72L15.51 8.72L15.51 9.00L15.51 9.00Q14.08 9.13 12.85 10.68L12.85 10.68L12.71 11.10L12.71 11.10Q12.57 11.31 12.50 11.38L12.50 11.38L12.50 14.04L10.33 15.44L10.19 15.46L10.19 15.46Q9.91 15.46 9.91 15.23ZM15.96 12.45L15.96 12.45L15.96 12.45Q15.96 10.70 17.04 9.34L17.04 9.34L17.04 9.34Q18.19 7.87 19.89 7.87L19.89 7.87L19.89 7.87Q21.28 7.87 21.97 8.85L21.97 8.85L21.97 8.85Q22.57 9.70 22.57 11.13L22.57 11.13L22.57 11.13Q22.57 12.68 21.63 14L21.63 14L21.63 14Q20.59 15.46 19.05 15.46L19.05 15.46L19.05 15.46Q17.91 15.46 16.93 14.52L16.93 14.52L16.93 14.52Q15.96 13.58 15.96 12.45ZM17.91 11.28L17.91 11.28L17.91 11.28Q17.91 12.46 19.47 13.76L19.47 13.76L19.66 13.76L19.66 13.76Q19.80 13.78 19.82 13.78L19.82 13.78L19.82 13.78Q20.31 13.78 20.55 13.26L20.55 13.26L20.55 13.26Q20.73 12.87 20.73 12.31L20.73 12.31L20.73 12.31Q20.73 11.34 20.43 10.58L20.43 10.58L20.43 10.58Q19.99 9.53 19.18 9.53L19.18 9.53L19.18 9.53Q18.83 9.53 18.65 10.04L18.65 10.04L18.65 10.04Q18.59 10.30 18.45 10.84L18.45 10.84L18.45 10.84Q18.33 11.28 17.91 11.28ZM24.43 13.05L24.44 12.77L24.44 12.77Q24.44 12.74 24.43 12.49L24.43 12.49L24.43 12.49Q24.25 11.51 24.01 10.53L24.01 10.53L24.01 10.53Q23.98 10.44 23.70 10.35L23.70 10.35L23.70 10.35Q23.42 10.26 23.42 10.11L23.42 10.11L23.42 10.11Q23.42 9.83 24.70 9.20L24.70 9.20L24.70 9.20Q25.93 8.57 26.32 8.57L26.32 8.57L26.39 8.57L26.39 8.57Q26.59 8.64 26.67 8.71L26.67 8.71L26.67 9.97L26.81 9.97L26.81 9.97Q27.34 9.52 28.10 9.10L28.10 9.10L28.10 9.10Q29.05 8.57 29.54 8.57L29.54 8.57L29.61 8.57L29.61 8.57Q29.76 8.64 29.76 8.78L29.76 8.78L29.76 8.78Q29.76 9.04 29.48 9.63L29.48 9.63L29.48 9.63Q29.19 10.22 29.19 10.53L29.19 10.53L29.19 10.53Q29.19 11.37 29.22 11.55L29.22 11.55L29.22 11.55Q29.34 12.36 29.82 12.36L29.82 12.36L29.82 12.36Q30.23 12.36 30.28 11.84L30.28 11.84L30.28 11.84Q30.28 11.84 30.37 10.98L30.37 10.98L30.37 10.98Q30.49 10.37 30.80 10.37L30.80 10.37L30.84 10.37L30.84 10.37Q30.86 10.39 30.87 10.39L30.87 10.39L30.87 10.39Q31.02 10.96 31.02 11.87L31.02 11.87L31.02 11.87Q31.02 12.98 30.37 14.07L30.37 14.07L30.37 14.07Q29.61 15.32 28.60 15.32L28.60 15.32L28.60 15.32Q27.61 15.32 27.22 13.83L27.22 13.83L27.22 13.83Q27.08 13.30 26.95 11.65L26.95 11.65L26.95 11.65Q26.70 11.75 26.60 12.98L26.60 12.98L26.60 12.98Q26.59 13.19 26.53 14.45L26.53 14.45L26.53 14.45Q26.40 15.01 25.24 15.75L25.24 15.75L25.24 15.75Q24.14 16.46 23.52 16.46L23.52 16.46L23.52 16.46Q23.52 16.20 23.75 15.82L23.75 15.82L23.75 15.82Q23.98 15.44 24.01 15.29L24.01 15.29L24.29 13.47L24.43 13.05ZM38.56 10.37L38.56 10.37L38.56 10.37Q38.56 8.81 38.40 7.74L38.40 7.74L38.40 7.74Q38.39 7.74 38.37 7.73L38.37 7.73L38.33 7.73L38.33 7.73Q37.95 7.73 37.15 8.74L37.15 8.74L37.15 8.74Q36.34 9.74 36.15 9.74L36.15 9.74L36.15 9.74Q36.15 9.17 36.40 8.57L36.40 8.57L36.40 8.57Q36.54 8.27 36.86 7.46L36.86 7.46L37.14 6.62L37.14 6.62Q37.25 6.36 39.28 5.41L39.28 5.41L39.28 5.41Q41.30 4.47 41.71 4.47L41.71 4.47L41.71 4.47Q41.71 4.68 41.43 5.03L41.43 5.03L41.43 5.03Q41.15 5.38 41.15 5.70L41.15 5.70L41.15 5.70Q43.50 5.70 45.05 6.78L45.05 6.78L45.05 6.78Q46.82 8.01 46.82 10.26L46.82 10.26L46.82 10.26Q46.82 12.43 45.16 13.94L45.16 13.94L45.16 13.94Q43.51 15.46 41.33 15.46L41.33 15.46L41.33 15.46Q40.96 15.46 40.24 15.37L40.24 15.37L40.24 15.37Q39.52 15.29 39.16 15.29L39.16 15.29L39.16 15.29Q38.98 15.29 38.63 15.39L38.63 15.39L38.63 15.39Q38.29 15.48 38.11 15.48L38.11 15.48L38.11 15.48Q38.11 15.16 38.23 14.62L38.23 14.62L38.23 14.62Q38.37 13.99 38.40 13.76L38.40 13.76L38.40 13.76Q38.56 12.33 38.56 10.37ZM41.19 7.03L41.19 7.03L41.19 7.03Q40.78 7.03 40.78 7.18L40.78 7.18L40.78 13.06L40.78 13.06Q40.78 13.38 41.50 13.61L41.50 13.61L41.50 13.61Q42.04 13.78 42.46 13.78L42.46 13.78L42.46 13.78Q44.70 13.78 44.70 11.17L44.70 11.17L44.70 11.17Q44.70 9.70 43.69 8.41L43.69 8.41L43.69 8.41Q42.62 7.03 41.19 7.03ZM48.44 14.32L48.44 10.99L48.44 10.99Q48.26 10.99 47.90 11.14L47.90 11.14L47.90 11.14Q47.54 11.28 47.36 11.28L47.36 11.28L47.36 11.28Q47.36 10.40 48.85 9.45L48.85 9.45L48.85 9.45Q50.22 8.57 51.13 8.57L51.13 8.57L51.13 8.57Q51.13 8.86 50.68 9.84L50.68 9.84L50.68 10.36L50.68 10.36Q50.68 10.37 50.67 10.72L50.67 10.72L50.67 10.72Q50.67 10.81 50.67 10.89L50.67 10.89L50.67 10.89Q50.67 11.76 50.68 11.94L50.68 11.94L50.68 11.94Q50.72 12.50 50.82 12.50L50.82 12.50L51.10 12.50L52.64 11.52L52.64 11.52Q52.67 11.51 52.71 11.51L52.71 11.51L52.71 11.51Q52.93 11.51 52.93 12.17L52.93 12.17L52.93 12.17Q52.93 12.98 51.61 14.22L51.61 14.22L51.61 14.22Q50.29 15.46 49.46 15.46L49.46 15.46L49.46 15.46Q48.44 15.46 48.44 14.32L48.44 14.32ZM49.43 6.48L49.43 6.48L49.43 6.20L49.43 6.20Q49.43 6.10 49.42 6.01L49.42 6.01L49.42 5.92L49.42 5.92Q49.39 5.88 49.15 5.74L49.15 5.74L49.15 5.74Q48.99 5.64 48.99 5.50L48.99 5.50L48.99 5.50Q48.99 5.53 49 5.36L49 5.36L50.09 4.59L50.09 4.59Q50.88 4.09 51.39 4.09L51.39 4.09L51.39 4.09Q51.66 4.09 51.66 4.45L51.66 4.45L51.66 4.45Q51.66 5.74 49.98 7.60L49.98 7.60L49.98 7.60Q49.22 8.44 49.14 8.44L49.14 8.44L48.82 8.44L48.82 8.44Q48.82 8.15 49.13 7.48L49.13 7.48L49.13 7.48Q49.43 6.82 49.43 6.48ZM53.21 15.23L53.21 15.23L53.21 15.16L53.35 14.74L53.35 14.74Q53.38 14.64 53.49 14.18L53.49 14.18L53.49 10.12L53.49 10.12Q53.40 9.84 53.35 9.56L53.35 9.56L53.35 9.28L53.35 9.28Q54.12 8.82 55.03 8.30L55.03 8.30L55.03 8.30Q55.87 7.83 56.15 7.83L56.15 7.83L56.15 8.57L56.29 8.57L56.29 8.57Q56.42 8.58 56.43 8.58L56.43 8.58L57.69 8.44L57.69 8.44Q58.49 8.61 58.81 8.72L58.81 8.72L58.81 9.00L58.81 9.00Q57.39 9.13 56.15 10.68L56.15 10.68L56.01 11.10L56.01 11.10Q55.87 11.31 55.80 11.38L55.80 11.38L55.80 14.04L53.63 15.44L53.49 15.46L53.49 15.46Q53.21 15.46 53.21 15.23ZM59.23 12.82L59.23 12.82L59.23 12.82Q59.23 11.07 60.57 9.75L60.57 9.75L60.57 9.75Q61.91 8.43 63.66 8.43L63.66 8.43L63.66 8.43Q64.32 8.43 64.59 8.68L64.59 8.68L64.59 8.68Q64.86 8.93 64.86 9.58L64.86 9.58L64.86 9.58Q64.86 10.50 63.81 11.28L63.81 11.28L63.81 11.28Q62.93 11.82 62.05 12.36L62.05 12.36L61.91 12.50L61.91 12.50Q61.91 12.53 61.89 12.57L61.89 12.57L61.89 12.57Q61.89 12.80 62.22 13.05L62.22 13.05L62.22 13.05Q62.48 13.26 62.75 13.34L62.75 13.34L62.82 13.34L62.82 13.34Q63.24 13.34 64.11 12.69L64.11 12.69L64.11 12.69Q64.97 12.04 65.16 12.04L65.16 12.04L65.16 12.04Q65.16 13.23 63.92 14.34L63.92 14.34L63.92 14.34Q62.69 15.46 61.49 15.46L61.49 15.46L61.49 15.46Q60.44 15.46 59.81 14.64L59.81 14.64L59.81 14.64Q59.23 13.90 59.23 12.82ZM61.77 10.12L61.77 10.12L61.77 10.12Q61.26 10.81 61.26 11.56L61.26 11.56L61.26 11.56Q61.54 11.56 61.94 11.14L61.94 11.14L61.94 11.14Q62.34 10.71 62.34 10.42L62.34 10.42L62.34 10.42Q62.34 10.11 61.98 10.11L61.98 10.11L61.88 10.11L61.88 10.11Q61.78 10.12 61.77 10.12ZM65.93 12.84L65.93 12.84L65.93 12.84Q65.93 11.16 67.17 9.58L67.17 9.58L67.17 9.58Q68.50 7.90 70.15 7.90L70.15 7.90L70.15 7.90Q70.73 7.90 71.13 8.22L71.13 8.22L71.13 8.22Q71.54 8.54 71.54 9.10L71.54 9.10L71.54 9.17L71.54 9.17Q71.26 10.02 70.42 11.13L70.42 11.13L70.42 11.13Q69.68 12.11 69.58 12.11L69.58 12.11L69.27 12.11L69.27 12.11Q69.27 11.87 69.43 11.41L69.43 11.41L69.43 11.41Q69.58 10.95 69.58 10.71L69.58 10.71L69.58 10.71Q69.58 10.30 69.32 10.01L69.32 10.01L69.32 10.01Q69.06 9.72 68.67 9.72L68.67 9.72L68.67 9.72Q68.08 9.72 67.87 10.26L67.87 10.26L67.87 10.26Q67.75 10.60 67.75 11.31L67.75 11.31L67.75 11.31Q67.75 12.17 68.19 12.66L68.19 12.66L68.19 12.66Q68.56 13.05 69.44 13.37L69.44 13.37L69.65 13.38L69.65 13.38Q69.68 13.38 69.86 13.37L69.86 13.37L70.84 12.95L70.84 12.95Q70.90 12.94 70.92 12.94L70.92 12.94L70.92 12.94Q71.13 12.94 71.13 13.37L71.13 13.37L71.13 13.37Q71.13 14.06 70.03 14.87L70.03 14.87L70.03 14.87Q68.98 15.62 68.25 15.62L68.25 15.62L68.25 15.62Q67.49 15.62 67.34 15.47L67.34 15.47L66.22 14.35L66.22 14.35Q65.93 14.06 65.93 12.84ZM72.21 9.46L72.21 9.46L72.21 9.14L72.21 9.14Q73.57 8.54 74.31 7.88L74.31 7.88L75.71 6.62L75.99 6.62L75.99 8.44L76.13 8.58L76.13 8.58Q76.54 8.60 76.64 8.60L76.64 8.60L76.64 8.60Q77.17 8.60 78.22 8.50L78.22 8.50L78.22 8.50Q79.27 8.41 79.80 8.41L79.80 8.41L79.80 8.41Q79.80 8.83 78.89 9.60L78.89 9.60L78.89 9.60Q78.09 10.28 77.67 10.40L77.67 10.40L77.67 10.40Q77.46 10.46 76.83 10.51L76.83 10.51L76.83 10.51Q76.20 10.57 75.99 10.54L75.99 10.54L75.85 10.68L75.85 10.68Q75.82 10.77 75.82 11.52L75.82 11.52L75.82 11.52Q75.82 11.65 75.80 11.91L75.80 11.91L75.80 11.91Q75.78 12.18 75.78 12.31L75.78 12.31L75.78 12.31Q75.78 13.40 76.27 13.40L76.27 13.40L76.27 13.40Q76.50 13.40 76.55 13.34L76.55 13.34L77.95 11.94L78.34 11.94L78.34 11.94Q78.34 13.13 77.52 14.25L77.52 14.25L77.52 14.25Q76.61 15.48 75.50 15.48L75.50 15.48L75.50 15.48Q74.94 15.48 74.68 15.38L74.68 15.38L74.68 15.38Q74.42 15.27 74.03 14.88L74.03 14.88L74.03 14.88Q73.92 14.77 73.66 14.38L73.66 14.38L73.66 14.38Q73.40 13.99 73.40 13.90L73.40 13.90L73.40 9.84L73.40 9.84Q73.40 9.79 73.26 9.68L73.26 9.68L73.26 9.68Q73.12 9.58 73.05 9.56L73.05 9.56L73.05 9.56Q72.60 9.46 72.21 9.46ZM87.16 10.37L87.16 10.37L87.16 10.37Q87.16 8.81 87.01 7.74L87.01 7.74L87.01 7.74Q87.00 7.74 86.98 7.73L86.98 7.73L86.94 7.73L86.94 7.73Q86.56 7.73 85.76 8.74L85.76 8.74L85.76 8.74Q84.95 9.74 84.76 9.74L84.76 9.74L84.76 9.74Q84.76 9.17 85.01 8.57L85.01 8.57L85.01 8.57Q85.15 8.27 85.47 7.46L85.47 7.46L85.75 6.62L85.75 6.62Q85.86 6.36 87.89 5.41L87.89 5.41L87.89 5.41Q89.91 4.47 90.31 4.47L90.31 4.47L90.31 4.47Q90.31 4.68 90.03 5.03L90.03 5.03L90.03 5.03Q89.75 5.38 89.75 5.70L89.75 5.70L89.75 5.70Q92.11 5.70 93.66 6.78L93.66 6.78L93.66 6.78Q95.42 8.01 95.42 10.26L95.42 10.26L95.42 10.26Q95.42 12.43 93.77 13.94L93.77 13.94L93.77 13.94Q92.12 15.46 89.94 15.46L89.94 15.46L89.94 15.46Q89.57 15.46 88.85 15.37L88.85 15.37L88.85 15.37Q88.13 15.29 87.77 15.29L87.77 15.29L87.77 15.29Q87.58 15.29 87.24 15.39L87.24 15.39L87.24 15.39Q86.90 15.48 86.72 15.48L86.72 15.48L86.72 15.48Q86.72 15.16 86.84 14.62L86.84 14.62L86.84 14.62Q86.98 13.99 87.01 13.76L87.01 13.76L87.01 13.76Q87.16 12.33 87.16 10.37ZM89.80 7.03L89.80 7.03L89.80 7.03Q89.39 7.03 89.39 7.18L89.39 7.18L89.39 13.06L89.39 13.06Q89.39 13.38 90.10 13.61L90.10 13.61L90.10 13.61Q90.65 13.78 91.07 13.78L91.07 13.78L91.07 13.78Q93.31 13.78 93.31 11.17L93.31 11.17L93.31 11.17Q93.31 9.70 92.30 8.41L92.30 8.41L92.30 8.41Q91.22 7.03 89.80 7.03ZM96.17 12.82L96.17 12.82L96.17 12.82Q96.17 11.07 97.50 9.75L97.50 9.75L97.50 9.75Q98.84 8.43 100.59 8.43L100.59 8.43L100.59 8.43Q101.25 8.43 101.52 8.68L101.52 8.68L101.52 8.68Q101.79 8.93 101.79 9.58L101.79 9.58L101.79 9.58Q101.79 10.50 100.74 11.28L100.74 11.28L100.74 11.28Q99.86 11.82 98.98 12.36L98.98 12.36L98.84 12.50L98.84 12.50Q98.84 12.53 98.83 12.57L98.83 12.57L98.83 12.57Q98.83 12.80 99.15 13.05L99.15 13.05L99.15 13.05Q99.41 13.26 99.68 13.34L99.68 13.34L99.75 13.34L99.75 13.34Q100.17 13.34 101.04 12.69L101.04 12.69L101.04 12.69Q101.91 12.04 102.09 12.04L102.09 12.04L102.09 12.04Q102.09 13.23 100.86 14.34L100.86 14.34L100.86 14.34Q99.62 15.46 98.42 15.46L98.42 15.46L98.42 15.46Q97.37 15.46 96.74 14.64L96.74 14.64L96.74 14.64Q96.17 13.90 96.17 12.82ZM98.70 10.12L98.70 10.12L98.70 10.12Q98.20 10.81 98.20 11.56L98.20 11.56L98.20 11.56Q98.48 11.56 98.88 11.14L98.88 11.14L98.88 11.14Q99.27 10.71 99.27 10.42L99.27 10.42L99.27 10.42Q99.27 10.11 98.91 10.11L98.91 10.11L98.81 10.11L98.81 10.11Q98.71 10.12 98.70 10.12ZM103.54 10.70L103.54 10.70L103.54 10.70Q103.54 10.01 103.36 8.67L103.36 8.67L103.36 8.67Q103.18 7.32 103.18 6.64L103.18 6.64L103.18 6.64Q103.18 6.01 104.44 5.12L104.44 5.12L104.44 5.12Q105.63 4.28 106.29 4.28L106.29 4.28L106.29 4.28Q106.29 4.72 106.00 5.51L106.00 5.51L106.00 5.51Q105.71 6.30 105.70 6.71L105.70 6.71L105.70 6.71Q105.67 7.24 105.74 8.04L105.74 8.04L105.74 8.04Q105.83 9.03 105.83 9.38L105.83 9.38L105.83 9.38Q106.09 9.38 106.90 8.97L106.90 8.97L106.90 8.97Q107.70 8.55 108.08 8.55L108.08 8.55L108.08 8.55Q109.84 8.55 109.84 10.70L109.84 10.70L109.84 10.70Q109.84 12.56 108.65 13.96L108.65 13.96L108.65 13.96Q107.39 15.43 105.56 15.43L105.56 15.43L105.56 15.43Q105.39 15.43 105.06 15.35L105.06 15.35L105.06 15.35Q104.73 15.27 104.57 15.27L104.57 15.27L104.57 15.27Q104.29 15.27 103.75 15.51L103.75 15.51L103.75 15.51Q103.22 15.74 102.94 15.74L102.94 15.74L102.94 15.74Q102.94 15.43 103.11 14.83L103.11 14.83L103.11 14.83Q103.25 14.35 103.39 13.89L103.39 13.89L103.39 13.89Q103.54 12.94 103.54 10.70ZM106.82 10.37L106.82 10.37L106.82 10.37Q106.50 10.37 106.13 10.65L106.13 10.65L106.13 10.65Q105.77 10.92 105.77 11.23L105.77 11.23L105.77 13.61L105.77 13.61Q105.94 13.69 106.19 13.75L106.19 13.75L106.33 13.75L106.33 13.75Q107.07 13.75 107.51 13.08L107.51 13.08L107.51 13.08Q107.88 12.50 107.88 11.72L107.88 11.72L107.88 11.72Q107.88 11.17 107.63 10.81L107.63 10.81L107.63 10.81Q107.34 10.37 106.82 10.37ZM111.33 14.32L111.33 10.99L111.33 10.99Q111.15 10.99 110.79 11.14L110.79 11.14L110.79 11.14Q110.43 11.28 110.25 11.28L110.25 11.28L110.25 11.28Q110.25 10.40 111.73 9.45L111.73 9.45L111.73 9.45Q113.11 8.57 114.02 8.57L114.02 8.57L114.02 8.57Q114.02 8.86 113.57 9.84L113.57 9.84L113.57 10.36L113.57 10.36Q113.57 10.37 113.55 10.72L113.55 10.72L113.55 10.72Q113.55 10.81 113.55 10.89L113.55 10.89L113.55 10.89Q113.55 11.76 113.57 11.94L113.57 11.94L113.57 11.94Q113.61 12.50 113.71 12.50L113.71 12.50L113.99 12.50L115.53 11.52L115.53 11.52Q115.56 11.51 115.60 11.51L115.60 11.51L115.60 11.51Q115.82 11.51 115.82 12.17L115.82 12.17L115.82 12.17Q115.82 12.98 114.50 14.22L114.50 14.22L114.50 14.22Q113.18 15.46 112.35 15.46L112.35 15.46L112.35 15.46Q111.33 15.46 111.33 14.32L111.33 14.32ZM112.32 6.48L112.32 6.48L112.32 6.20L112.32 6.20Q112.32 6.10 112.31 6.01L112.31 6.01L112.31 5.92L112.31 5.92Q112.28 5.88 112.04 5.74L112.04 5.74L112.04 5.74Q111.87 5.64 111.87 5.50L111.87 5.50L111.87 5.50Q111.87 5.53 111.89 5.36L111.89 5.36L112.98 4.59L112.98 4.59Q113.76 4.09 114.28 4.09L114.28 4.09L114.28 4.09Q114.55 4.09 114.55 4.45L114.55 4.45L114.55 4.45Q114.55 5.74 112.87 7.60L112.87 7.60L112.87 7.60Q112.11 8.44 112.03 8.44L112.03 8.44L111.71 8.44L111.71 8.44Q111.71 8.15 112.01 7.48L112.01 7.48L112.01 7.48Q112.32 6.82 112.32 6.48ZM115.89 9.46L115.89 9.46L115.89 9.14L115.89 9.14Q117.25 8.54 117.99 7.88L117.99 7.88L119.39 6.62L119.67 6.62L119.67 8.44L119.81 8.58L119.81 8.58Q120.22 8.60 120.32 8.60L120.32 8.60L120.32 8.60Q120.85 8.60 121.90 8.50L121.90 8.50L121.90 8.50Q122.95 8.41 123.48 8.41L123.48 8.41L123.48 8.41Q123.48 8.83 122.57 9.60L122.57 9.60L122.57 9.60Q121.77 10.28 121.35 10.40L121.35 10.40L121.35 10.40Q121.14 10.46 120.51 10.51L120.51 10.51L120.51 10.51Q119.88 10.57 119.67 10.54L119.67 10.54L119.53 10.68L119.53 10.68Q119.50 10.77 119.50 11.52L119.50 11.52L119.50 11.52Q119.50 11.65 119.48 11.91L119.48 11.91L119.48 11.91Q119.46 12.18 119.46 12.31L119.46 12.31L119.46 12.31Q119.46 13.40 119.95 13.40L119.95 13.40L119.95 13.40Q120.18 13.40 120.23 13.34L120.23 13.34L121.63 11.94L122.02 11.94L122.02 11.94Q122.02 13.13 121.20 14.25L121.20 14.25L121.20 14.25Q120.29 15.48 119.18 15.48L119.18 15.48L119.18 15.48Q118.62 15.48 118.36 15.38L118.36 15.38L118.36 15.38Q118.10 15.27 117.71 14.88L117.71 14.88L117.71 14.88Q117.60 14.77 117.34 14.38L117.34 14.38L117.34 14.38Q117.08 13.99 117.08 13.90L117.08 13.90L117.08 9.84L117.08 9.84Q117.08 9.79 116.94 9.68L116.94 9.68L116.94 9.68Q116.80 9.58 116.73 9.56L116.73 9.56L116.73 9.56Q116.28 9.46 115.89 9.46Z"></path></g><defs data-v-423bf9ae=""><linearGradient data-v-423bf9ae="" gradientTransform="rotate(25)" id="6e3f0401-b347-4ad7-b907-90f06ea69509" x1="0%" y1="0%" x2="100%" y2="0%"><stop data-v-423bf9ae="" offset="0%" style="stop-color: rgb(32, 72, 79); stop-opacity: 1;"></stop><stop data-v-423bf9ae="" offset="100%" style="stop-color: rgb(78, 155, 171); stop-opacity: 1;"></stop></linearGradient></defs><g data-v-423bf9ae="" id="b3507bcc-8174-4294-bc59-571dae373349" transform="matrix(2.8125,0,0,2.8125,0,0)" stroke="none" fill="url(#6e3f0401-b347-4ad7-b907-90f06ea69509)"><path d="M29.625 1l-3.099 3.172H4.054v23.657h22.472L29.625 31H1V1h28.625M32 0H0v32h32l-5.054-5.172H5.054V5.172h21.893L32 0z"></path><path d="M21.038 10.962v10.076H10.962V10.962h10.076m1-1H9.962v12.076h12.076V9.962z"></path></g><!----><g data-v-423bf9ae="" id="01e3af3b-24a9-4d7b-8b2a-21be727135ca" fill="#12262A" transform="matrix(1.1037131270428007,0,0,1.1037131270428007,109.60265777627464,53.719871206281965)"><path d="M4.40 6.98L3.04 10.75L5.72 10.75L4.40 6.98ZM3.08 14.40L0.36 14.40L0.39 14.11L1.36 13.90L4.35 5.82L4.72 5.73L7.55 13.95L8.46 14.08L8.40 14.39L5.61 14.39L5.67 14.10L6.80 13.90L5.85 11.13L2.90 11.13L1.89 13.95L3.14 14.08L3.08 14.40ZM27.95 6.15L27.95 9.75L30.07 9.75L30.07 9.75Q30.53 9.45 30.86 9.01L30.86 9.01L30.86 9.01Q31.20 8.57 31.20 8.02L31.20 8.02L31.20 8.02Q31.20 7.08 30.56 6.59L30.56 6.59L30.56 6.59Q29.92 6.11 28.79 6.11L28.79 6.11L28.79 6.11Q28.14 6.11 27.95 6.15L27.95 6.15ZM27.95 10.08L27.95 14.03L29.63 14.03L29.63 14.03Q30.27 14.03 30.73 13.85L30.73 13.85L30.73 13.85Q31.19 13.68 31.43 13.38L31.43 13.38L31.43 13.38Q31.67 13.08 31.78 12.74L31.78 12.74L31.78 12.74Q31.89 12.41 31.89 12.02L31.89 12.02L31.89 12.02Q31.89 11.68 31.78 11.36L31.78 11.36L31.78 11.36Q31.67 11.04 31.43 10.74L31.43 10.74L31.43 10.74Q31.19 10.45 30.75 10.26L30.75 10.26L30.75 10.26Q30.30 10.08 29.70 10.08L29.70 10.08L27.95 10.08ZM28.96 14.40L26.05 14.40L26.11 14.11L27.26 13.90L27.26 6.51L26.09 6.36L26.15 6.12L26.15 6.12Q26.28 6.10 26.71 6.03L26.71 6.03L26.71 6.03Q27.15 5.96 27.33 5.94L27.33 5.94L27.33 5.94Q27.50 5.91 27.86 5.87L27.86 5.87L27.86 5.87Q28.21 5.83 28.52 5.82L28.52 5.82L28.52 5.82Q28.83 5.80 29.18 5.80L29.18 5.80L29.18 5.80Q30.47 5.80 31.18 6.38L31.18 6.38L31.18 6.38Q31.90 6.96 31.90 7.79L31.90 7.79L31.90 7.79Q31.90 8.98 30.48 9.76L30.48 9.76L30.48 9.80L30.48 9.80Q31.47 9.86 32.04 10.46L32.04 10.46L32.04 10.46Q32.61 11.05 32.61 11.80L32.61 11.80L32.61 11.80Q32.61 12.22 32.51 12.58L32.51 12.58L32.51 12.58Q32.41 12.95 32.15 13.29L32.15 13.29L32.15 13.29Q31.88 13.63 31.48 13.87L31.48 13.87L31.48 13.87Q31.08 14.11 30.43 14.25L30.43 14.25L30.43 14.25Q29.78 14.40 28.96 14.40L28.96 14.40ZM41.55 6.36L40.33 6.18L40.37 5.89L46.57 5.89L46.35 8.07L46.04 8.03L45.91 6.24L42.26 6.24L42.26 9.89L44.55 9.89L44.80 8.94L45.17 8.89L44.95 11.55L44.60 11.61L44.49 10.26L42.26 10.26L42.26 14.03L46.10 14.03L46.61 12.19L46.89 12.26L46.68 14.40L40.35 14.40L40.39 14.11L41.55 13.90L41.55 6.36ZM54.66 8.09L54.59 5.89L61.65 5.89L61.41 8.16L61.07 8.12L60.96 6.24L58.42 6.24L58.42 13.90L59.63 14.08L59.55 14.40L56.46 14.40L56.49 14.11L57.69 13.90L57.69 6.24L55.25 6.24L55.02 8.15L54.66 8.09ZM69.43 8.09L69.36 5.89L76.42 5.89L76.18 8.16L75.84 8.12L75.72 6.24L73.19 6.24L73.19 13.90L74.40 14.08L74.32 14.40L71.22 14.40L71.26 14.11L72.45 13.90L72.45 6.24L70.02 6.24L69.78 8.15L69.43 8.09ZM85.35 6.36L84.13 6.18L84.18 5.89L90.37 5.89L90.16 8.07L89.84 8.03L89.71 6.24L86.06 6.24L86.06 9.89L88.35 9.89L88.61 8.94L88.98 8.89L88.75 11.55L88.40 11.61L88.29 10.26L86.06 10.26L86.06 14.03L89.91 14.03L90.41 12.19L90.69 12.26L90.49 14.40L84.15 14.40L84.19 14.11L85.35 13.90L85.35 6.36ZM100.22 6.18L100.22 10.11L101.77 10.11L101.77 10.11Q102.46 9.86 102.92 9.28L102.92 9.28L102.92 9.28Q103.37 8.70 103.37 8.02L103.37 8.02L103.37 8.02Q103.37 7.11 102.75 6.63L102.75 6.63L102.75 6.63Q102.14 6.15 101.05 6.15L101.05 6.15L100.22 6.18ZM101.60 14.40L98.40 14.40L98.45 14.11L99.52 13.90L99.52 6.51L98.42 6.37L98.49 6.13L98.49 6.13Q100.31 5.83 101.39 5.83L101.39 5.83L101.39 5.83Q102.16 5.83 102.76 6.05L102.76 6.05L102.76 6.05Q103.37 6.27 103.75 6.73L103.75 6.73L103.75 6.73Q104.13 7.19 104.13 7.83L104.13 7.83L104.13 7.83Q104.13 8.57 103.70 9.14L103.70 9.14L103.70 9.14Q103.27 9.72 102.24 10.23L102.24 10.23L102.24 10.23L103.56 12.19L103.56 12.19Q104.27 13.23 104.61 13.58L104.61 13.58L104.61 13.58Q104.96 13.92 105.34 14.05L105.34 14.05L105.67 14.16L105.63 14.42L105.63 14.42Q105.33 14.52 104.99 14.52L104.99 14.52L104.99 14.52Q104.71 14.52 104.45 14.40L104.45 14.40L104.45 14.40Q104.20 14.28 103.96 14.01L103.96 14.01L103.96 14.01Q103.71 13.75 103.53 13.48L103.53 13.48L103.53 13.48Q103.35 13.22 103.07 12.77L103.07 12.77L101.68 10.49L100.22 10.49L100.22 13.95L101.66 14.08L101.60 14.40ZM124.08 6.34L123.25 6.15L123.29 5.89L125.98 5.89L125.96 6.11L124.83 6.32L126.79 13.18L128.83 6.18L129.14 6.14L131.08 13.18L133.29 6.36L132.02 6.13L132.05 5.89L134.67 5.89L134.65 6.14L133.84 6.34L131.15 14.49L130.70 14.57L128.87 7.63L126.85 14.49L126.37 14.57L124.08 6.34ZM146.43 6.98L145.06 10.75L147.75 10.75L146.43 6.98ZM145.11 14.40L142.38 14.40L142.41 14.11L143.38 13.90L146.38 5.82L146.74 5.73L149.58 13.95L150.48 14.08L150.42 14.39L147.63 14.39L147.69 14.10L148.83 13.90L147.88 11.13L144.92 11.13L143.91 13.95L145.17 14.08L145.11 14.40ZM159.11 6.35L158.16 6.15L158.18 5.90L161.03 5.90L161.01 6.15L159.87 6.32L162.01 10.49L164.13 6.34L162.87 6.14L162.88 5.89L165.55 5.89L165.53 6.14L164.64 6.32L162.26 11.05L162.26 13.94L163.50 14.08L163.44 14.40L160.30 14.40L160.34 14.11L161.53 13.90L161.53 11.05L159.11 6.35ZM183.94 9.75L183.94 9.75L183.94 9.75Q183.94 11.03 184.30 12.01L184.30 12.01L184.30 12.01Q184.67 13.00 185.38 13.57L185.38 13.57L185.38 13.57Q186.10 14.14 187.08 14.14L187.08 14.14L187.08 14.14Q187.65 14.14 188.15 13.92L188.15 13.92L188.15 13.92Q188.64 13.70 188.98 13.33L188.98 13.33L188.98 13.33Q189.33 12.96 189.57 12.49L189.57 12.49L189.57 12.49Q189.81 12.01 189.93 11.50L189.93 11.50L189.93 11.50Q190.05 10.99 190.05 10.48L190.05 10.48L190.05 10.48Q190.05 8.50 189.19 7.29L189.19 7.29L189.19 7.29Q188.34 6.07 186.89 6.07L186.89 6.07L186.89 6.07Q186.31 6.07 185.82 6.28L185.82 6.28L185.82 6.28Q185.33 6.49 184.99 6.85L184.99 6.85L184.99 6.85Q184.65 7.21 184.41 7.69L184.41 7.69L184.41 7.69Q184.17 8.16 184.05 8.69L184.05 8.69L184.05 8.69Q183.94 9.21 183.94 9.75ZM183.19 10.16L183.19 10.16L183.19 10.16Q183.19 8.16 184.29 6.92L184.29 6.92L184.29 6.92Q185.38 5.69 187.22 5.69L187.22 5.69L187.22 5.69Q188.36 5.69 189.17 6.27L189.17 6.27L189.17 6.27Q189.99 6.86 190.39 7.84L190.39 7.84L190.39 7.84Q190.78 8.83 190.78 10.11L190.78 10.11L190.78 10.11Q190.78 10.75 190.63 11.38L190.63 11.38L190.63 11.38Q190.48 12.00 190.16 12.58L190.16 12.58L190.16 12.58Q189.83 13.17 189.37 13.61L189.37 13.61L189.37 13.61Q188.91 14.05 188.23 14.32L188.23 14.32L188.23 14.32Q187.56 14.58 186.75 14.58L186.75 14.58L186.75 14.58Q185.70 14.58 184.87 13.98L184.87 13.98L184.87 13.98Q184.05 13.37 183.62 12.37L183.62 12.37L183.62 12.37Q183.19 11.37 183.19 10.16ZM199.72 6.36L198.51 6.18L198.56 5.89L204.75 5.89L204.52 8.09L204.19 8.04L204.05 6.24L200.42 6.24L200.42 10.07L202.70 10.07L202.97 9.11L203.35 9.06L203.14 11.72L202.76 11.77L202.64 10.43L200.42 10.43L200.42 13.92L202.10 14.03L202.02 14.40L198.54 14.40L198.56 14.11L199.72 13.90L199.72 6.36ZM222.40 10.25L222.40 10.25L222.40 10.25Q222.40 9.73 222.51 9.21L222.51 9.21L222.51 9.21Q222.61 8.68 222.81 8.17L222.81 8.17L222.81 8.17Q223.02 7.66 223.34 7.22L223.34 7.22L223.34 7.22Q223.67 6.77 224.09 6.44L224.09 6.44L224.09 6.44Q224.50 6.10 225.06 5.90L225.06 5.90L225.06 5.90Q225.61 5.71 226.25 5.71L226.25 5.71L226.25 5.71Q227.66 5.71 228.57 6.39L228.57 6.39L228.36 8.70L228.04 8.64L227.83 6.87L227.83 6.87Q227.24 6.09 225.93 6.09L225.93 6.09L225.93 6.09Q224.78 6.09 223.95 7.19L223.95 7.19L223.95 7.19Q223.13 8.30 223.13 10.00L223.13 10.00L223.13 10.00Q223.13 11.92 223.93 12.97L223.93 12.97L223.93 12.97Q224.73 14.03 226.21 14.03L226.21 14.03L226.21 14.03Q226.94 14.03 227.63 13.65L227.63 13.65L227.63 13.65Q228.32 13.28 228.79 12.74L228.79 12.74L228.95 12.99L228.95 12.99Q228.78 13.25 228.49 13.51L228.49 13.51L228.49 13.51Q228.20 13.77 227.82 14.02L227.82 14.02L227.82 14.02Q227.43 14.27 226.93 14.42L226.93 14.42L226.93 14.42Q226.42 14.57 225.89 14.57L225.89 14.57L225.89 14.57Q224.32 14.57 223.36 13.40L223.36 13.40L223.36 13.40Q222.40 12.22 222.40 10.25ZM238.44 6.18L238.44 10.11L240.00 10.11L240.00 10.11Q240.68 9.86 241.14 9.28L241.14 9.28L241.14 9.28Q241.60 8.70 241.60 8.02L241.60 8.02L241.60 8.02Q241.60 7.11 240.98 6.63L240.98 6.63L240.98 6.63Q240.36 6.15 239.27 6.15L239.27 6.15L238.44 6.18ZM239.82 14.40L236.63 14.40L236.67 14.11L237.74 13.90L237.74 6.51L236.65 6.37L236.71 6.13L236.71 6.13Q238.53 5.83 239.61 5.83L239.61 5.83L239.61 5.83Q240.38 5.83 240.99 6.05L240.99 6.05L240.99 6.05Q241.60 6.27 241.97 6.73L241.97 6.73L241.97 6.73Q242.35 7.19 242.35 7.83L242.35 7.83L242.35 7.83Q242.35 8.57 241.92 9.14L241.92 9.14L241.92 9.14Q241.49 9.72 240.46 10.23L240.46 10.23L240.46 10.23L241.78 12.19L241.78 12.19Q242.49 13.23 242.84 13.58L242.84 13.58L242.84 13.58Q243.18 13.92 243.56 14.05L243.56 14.05L243.89 14.16L243.85 14.42L243.85 14.42Q243.56 14.52 243.22 14.52L243.22 14.52L243.22 14.52Q242.93 14.52 242.68 14.40L242.68 14.40L242.68 14.40Q242.42 14.28 242.18 14.01L242.18 14.01L242.18 14.01Q241.94 13.75 241.75 13.48L241.75 13.48L241.75 13.48Q241.57 13.22 241.29 12.77L241.29 12.77L239.91 10.49L238.44 10.49L238.44 13.95L239.89 14.08L239.82 14.40ZM252.52 6.35L251.57 6.15L251.60 5.90L254.45 5.90L254.42 6.15L253.29 6.32L255.42 10.49L257.54 6.34L256.28 6.14L256.29 5.89L258.96 5.89L258.94 6.14L258.06 6.32L255.67 11.05L255.67 13.94L256.91 14.08L256.85 14.40L253.71 14.40L253.75 14.11L254.95 13.90L254.95 11.05L252.52 6.35ZM270.07 14.40L266.66 14.40L266.70 14.11L267.78 13.90L267.78 6.51L266.67 6.36L266.73 6.12L266.73 6.12Q266.90 6.09 267.35 6.02L267.35 6.02L267.35 6.02Q267.80 5.94 268.03 5.91L268.03 5.91L268.03 5.91Q268.26 5.88 268.67 5.84L268.67 5.84L268.67 5.84Q269.08 5.81 269.49 5.81L269.49 5.81L269.49 5.81Q270.18 5.81 270.77 5.96L270.77 5.96L270.77 5.96Q271.36 6.10 271.82 6.40L271.82 6.40L271.82 6.40Q272.28 6.69 272.54 7.18L272.54 7.18L272.54 7.18Q272.80 7.66 272.80 8.29L272.80 8.29L272.80 8.29Q272.80 8.90 272.52 9.43L272.52 9.43L272.52 9.43Q272.24 9.97 271.78 10.33L271.78 10.33L271.78 10.33Q271.32 10.69 270.72 10.90L270.72 10.90L270.72 10.90Q270.12 11.10 269.48 11.10L269.48 11.10L269.48 11.10Q269.21 11.10 269.14 11.09L269.14 11.09L269.07 10.80L269.44 10.78L269.44 10.78Q270.10 10.75 270.60 10.55L270.60 10.55L270.60 10.55Q271.09 10.36 271.38 10.03L271.38 10.03L271.38 10.03Q271.67 9.70 271.81 9.30L271.81 9.30L271.81 9.30Q271.95 8.90 271.95 8.43L271.95 8.43L271.95 8.43Q271.95 7.98 271.79 7.57L271.79 7.57L271.79 7.57Q271.62 7.16 271.30 6.83L271.30 6.83L271.30 6.83Q270.98 6.50 270.45 6.31L270.45 6.31L270.45 6.31Q269.93 6.11 269.28 6.11L269.28 6.11L268.53 6.15L268.53 13.95L270.13 14.08L270.07 14.40ZM280.55 8.09L280.49 5.89L287.55 5.89L287.31 8.16L286.97 8.12L286.85 6.24L284.31 6.24L284.31 13.90L285.52 14.08L285.45 14.40L282.35 14.40L282.39 14.11L283.58 13.90L283.58 6.24L281.15 6.24L280.91 8.15L280.55 8.09ZM296.04 9.75L296.04 9.75L296.04 9.75Q296.04 11.03 296.40 12.01L296.40 12.01L296.40 12.01Q296.76 13.00 297.48 13.57L297.48 13.57L297.48 13.57Q298.20 14.14 299.17 14.14L299.17 14.14L299.17 14.14Q299.75 14.14 300.24 13.92L300.24 13.92L300.24 13.92Q300.73 13.70 301.08 13.33L301.08 13.33L301.08 13.33Q301.42 12.96 301.67 12.49L301.67 12.49L301.67 12.49Q301.91 12.01 302.03 11.50L302.03 11.50L302.03 11.50Q302.14 10.99 302.14 10.48L302.14 10.48L302.14 10.48Q302.14 8.50 301.29 7.29L301.29 7.29L301.29 7.29Q300.44 6.07 298.99 6.07L298.99 6.07L298.99 6.07Q298.41 6.07 297.92 6.28L297.92 6.28L297.92 6.28Q297.42 6.49 297.08 6.85L297.08 6.85L297.08 6.85Q296.74 7.21 296.50 7.69L296.50 7.69L296.50 7.69Q296.26 8.16 296.15 8.69L296.15 8.69L296.15 8.69Q296.04 9.21 296.04 9.75ZM295.29 10.16L295.29 10.16L295.29 10.16Q295.29 8.16 296.38 6.92L296.38 6.92L296.38 6.92Q297.48 5.69 299.32 5.69L299.32 5.69L299.32 5.69Q300.45 5.69 301.27 6.27L301.27 6.27L301.27 6.27Q302.09 6.86 302.48 7.84L302.48 7.84L302.48 7.84Q302.88 8.83 302.88 10.11L302.88 10.11L302.88 10.11Q302.88 10.75 302.73 11.38L302.73 11.38L302.73 11.38Q302.58 12.00 302.25 12.58L302.25 12.58L302.25 12.58Q301.93 13.17 301.47 13.61L301.47 13.61L301.47 13.61Q301.01 14.05 300.33 14.32L300.33 14.32L300.33 14.32Q299.65 14.58 298.85 14.58L298.85 14.58L298.85 14.58Q297.79 14.58 296.97 13.98L296.97 13.98L296.97 13.98Q296.15 13.37 295.72 12.37L295.72 12.37L295.72 12.37Q295.29 11.37 295.29 10.16ZM323.93 14.40L320.52 14.40L320.55 14.11L321.63 13.90L321.63 6.51L320.52 6.36L320.58 6.12L320.58 6.12Q320.76 6.09 321.20 6.02L321.20 6.02L321.20 6.02Q321.65 5.94 321.88 5.91L321.88 5.91L321.88 5.91Q322.11 5.88 322.52 5.84L322.52 5.84L322.52 5.84Q322.93 5.81 323.35 5.81L323.35 5.81L323.35 5.81Q324.04 5.81 324.63 5.96L324.63 5.96L324.63 5.96Q325.21 6.10 325.67 6.40L325.67 6.40L325.67 6.40Q326.14 6.69 326.40 7.18L326.40 7.18L326.40 7.18Q326.66 7.66 326.66 8.29L326.66 8.29L326.66 8.29Q326.66 8.90 326.38 9.43L326.38 9.43L326.38 9.43Q326.09 9.97 325.63 10.33L325.63 10.33L325.63 10.33Q325.17 10.69 324.57 10.90L324.57 10.90L324.57 10.90Q323.97 11.10 323.33 11.10L323.33 11.10L323.33 11.10Q323.06 11.10 322.99 11.09L322.99 11.09L322.92 10.80L323.29 10.78L323.29 10.78Q323.96 10.75 324.45 10.55L324.45 10.55L324.45 10.55Q324.95 10.36 325.24 10.03L325.24 10.03L325.24 10.03Q325.53 9.70 325.67 9.30L325.67 9.30L325.67 9.30Q325.81 8.90 325.81 8.43L325.81 8.43L325.81 8.43Q325.81 7.98 325.64 7.57L325.64 7.57L325.64 7.57Q325.47 7.16 325.15 6.83L325.15 6.83L325.15 6.83Q324.83 6.50 324.31 6.31L324.31 6.31L324.31 6.31Q323.78 6.11 323.13 6.11L323.13 6.11L322.38 6.15L322.38 13.95L323.98 14.08L323.93 14.40ZM338.41 6.98L337.04 10.75L339.73 10.75L338.41 6.98ZM337.09 14.40L334.36 14.40L334.39 14.11L335.36 13.90L338.36 5.82L338.72 5.73L341.56 13.95L342.46 14.08L342.41 14.39L339.61 14.39L339.67 14.10L340.81 13.90L339.86 11.13L336.90 11.13L335.89 13.95L337.15 14.08L337.09 14.40ZM351.09 6.35L350.14 6.15L350.16 5.90L353.01 5.90L352.99 6.15L351.85 6.32L353.99 10.49L356.11 6.34L354.85 6.14L354.86 5.89L357.53 5.89L357.51 6.14L356.62 6.32L354.24 11.05L354.24 13.94L355.48 14.08L355.42 14.40L352.28 14.40L352.32 14.11L353.51 13.90L353.51 11.05L351.09 6.35ZM368.03 14.40L365.20 14.40L365.24 14.17L366.38 13.96L366.95 6.36L365.69 6.14L365.74 5.89L367.92 5.89L368.40 7.18L370.55 12.84L373.00 6.88L373.41 5.89L375.64 5.89L375.61 6.14L374.43 6.34L374.81 14.01L376.04 14.12L376.02 14.40L372.87 14.40L372.91 14.17L374.08 13.96L373.69 6.41L370.51 13.99L370.17 14.05L367.38 6.53L366.84 14.01L368.07 14.12L368.03 14.40ZM384.96 6.36L383.74 6.18L383.78 5.89L389.98 5.89L389.76 8.07L389.45 8.03L389.32 6.24L385.67 6.24L385.67 9.89L387.96 9.89L388.21 8.94L388.58 8.89L388.36 11.55L388.01 11.61L387.90 10.26L385.67 10.26L385.67 14.03L389.51 14.03L390.02 12.19L390.30 12.26L390.09 14.40L383.76 14.40L383.80 14.11L384.96 13.90L384.96 6.36ZM399.25 6.36L397.99 6.14L398.04 5.89L400.11 5.89L404.84 13.17L404.84 6.33L403.59 6.16L403.63 5.89L406.53 5.89L406.47 6.16L405.34 6.32L405.34 14.44L404.97 14.52L399.76 6.65L399.76 13.95L401.02 14.08L400.95 14.40L398.07 14.40L398.11 14.11L399.25 13.90L399.25 6.36ZM414.27 8.09L414.20 5.89L421.26 5.89L421.03 8.16L420.68 8.12L420.57 6.24L418.03 6.24L418.03 13.90L419.24 14.08L419.17 14.40L416.07 14.40L416.10 14.11L417.30 13.90L417.30 6.24L414.87 6.24L414.63 8.15L414.27 8.09ZM428.98 13.60L428.98 13.60L429.19 11.66L429.52 11.71L429.71 13.21L429.71 13.21Q429.93 13.64 430.46 13.89L430.46 13.89L430.46 13.89Q430.99 14.14 431.59 14.14L431.59 14.14L431.59 14.14Q432.28 14.14 432.76 13.74L432.76 13.74L432.76 13.74Q433.23 13.33 433.23 12.61L433.23 12.61L433.23 12.61Q433.23 12.20 433.02 11.83L433.02 11.83L433.02 11.83Q432.80 11.46 432.46 11.18L432.46 11.18L432.46 11.18Q432.11 10.90 431.69 10.63L431.69 10.63L431.69 10.63Q431.27 10.36 430.86 10.07L430.86 10.07L430.86 10.07Q430.44 9.79 430.09 9.48L430.09 9.48L430.09 9.48Q429.75 9.17 429.53 8.75L429.53 8.75L429.53 8.75Q429.32 8.33 429.32 7.84L429.32 7.84L429.32 7.84Q429.32 6.88 430.01 6.29L430.01 6.29L430.01 6.29Q430.71 5.71 431.59 5.71L431.59 5.71L431.59 5.71Q432.17 5.71 432.71 5.90L432.71 5.90L432.71 5.90Q433.25 6.09 433.58 6.46L433.58 6.46L433.36 8.58L433.04 8.53L432.86 6.87L432.86 6.87Q432.67 6.54 432.26 6.32L432.26 6.32L432.26 6.32Q431.84 6.10 431.41 6.10L431.41 6.10L431.41 6.10Q430.81 6.10 430.40 6.48L430.40 6.48L430.40 6.48Q429.99 6.87 429.99 7.52L429.99 7.52L429.99 7.52Q429.99 7.96 430.21 8.35L430.21 8.35L430.21 8.35Q430.43 8.74 430.78 9.03L430.78 9.03L430.78 9.03Q431.14 9.32 431.56 9.61L431.56 9.61L431.56 9.61Q431.98 9.89 432.41 10.17L432.41 10.17L432.41 10.17Q432.84 10.45 433.19 10.75L433.19 10.75L433.19 10.75Q433.54 11.05 433.76 11.45L433.76 11.45L433.76 11.45Q433.99 11.85 433.99 12.29L433.99 12.29L433.99 12.29Q433.99 13.28 433.23 13.93L433.23 13.93L433.23 13.93Q432.48 14.57 431.24 14.57L431.24 14.57L431.24 14.57Q430.53 14.57 429.93 14.30L429.93 14.30L429.93 14.30Q429.32 14.03 428.98 13.60Z"></path></g></svg>